<svg xmlns="http://www.w3.org/2000/svg" xml:space="preserve" width="800" height="800" viewBox="0 0 512 512">
	<path d="M343.57 262.33c23.952 24.778 38.68 58.514 38.68 95.692 0 76.065-61.669 137.722-137.733 137.722s-137.722-61.657-137.722-137.722c0-37.178 14.729-70.914 38.68-95.692 13.869-14.373 30.857-25.73 49.853-32.979 15.279-5.862 31.855-9.062 49.188-9.062s33.909 3.2 49.188 9.062c19.009 7.249 35.986 18.606 49.866 32.979zm7.709 95.691c0-58.961-47.8-106.761-106.761-106.761s-106.75 47.8-106.75 106.761c0 58.95 47.789 106.75 106.75 106.75s106.761-47.8 106.761-106.75z" style="fill:#3a88d6"/>
	<path d="M244.517 251.26c58.961 0 106.761 47.8 106.761 106.761 0 58.95-47.8 106.75-106.761 106.75s-106.75-47.8-106.75-106.75c.001-58.961 47.789-106.761 106.75-106.761z" style="fill:#f2f2f2"/>
	<path d="M181.956 410.574a8.593 8.593 0 0 1-7.043-3.652c-10.111-14.368-15.455-31.277-15.455-48.901 0-46.906 38.157-85.068 85.06-85.068 11.223 0 22.133 2.153 32.428 6.401 4.392 1.812 6.483 6.842 4.671 11.235s-6.841 6.486-11.235 4.671c-8.202-3.384-16.904-5.1-25.864-5.1-37.414 0-67.854 30.443-67.854 67.862 0 14.06 4.26 27.547 12.32 38.999a8.603 8.603 0 0 1-7.028 13.553z" style="fill:#fff"/>
	<path d="M321.03 166.73v18.95l-32.922 4.738 5.598 38.933c-15.279-5.862-31.855-9.062-49.188-9.062s-33.908 3.2-49.188 9.062l5.598-38.933-32.922-4.738v-18.95H321.03z" style="fill:#f7b239"/>
	<path d="M73.633 172.11v79.884l-30.376-4.37 11.254-78.267z" style="fill:#f95428"/>
	<path d="m200.927 190.418-5.598 38.933c-18.996 7.25-35.985 18.606-49.853 32.979l-71.843-10.335V172.11l94.373 13.57 32.921 4.738zM434.536 169.357l11.241 78.267-30.375 4.37V172.11zM415.402 172.11v79.885L343.57 262.33c-13.88-14.373-30.857-25.73-49.865-32.979l-5.598-38.933 32.922-4.738 94.373-13.57z" style="fill:#f95428"/>
	<path d="M244.52 242.661c-63.608 0-115.357 51.749-115.357 115.357s51.749 115.358 115.357 115.358 115.358-51.749 115.358-115.358-51.75-115.357-115.358-115.357zm0 213.508c-54.121 0-98.15-44.031-98.15-98.151s44.031-98.15 98.15-98.15c54.121 0 98.151 44.031 98.151 98.15 0 54.121-44.031 98.151-98.151 98.151zM82.241 45.24V16.253a8.603 8.603 0 0 0-17.206 0V45.24" style="fill:#333"/>
	<path d="M424.003 68.862V51.961a8.603 8.603 0 0 0-17.206 0v112.694l-77.16 11.095v-9.017a8.603 8.603 0 0 0-8.603-8.603h-153.03a8.603 8.603 0 0 0-8.603 8.603v9.017L82.24 164.655V77.359H65.033v32.311H51.958a8.603 8.603 0 0 0 0 17.206h13.076v35.305l-9.301-1.338a8.603 8.603 0 0 0-9.74 7.292l-11.247 78.261a8.602 8.602 0 0 0 7.291 9.739l22.998 3.308v184.043L18.862 489.66a8.602 8.602 0 0 0 0 12.166c1.679 1.681 3.882 2.52 6.083 2.52s4.404-.84 6.083-2.52l34.007-34.007v27.923a8.603 8.603 0 0 0 17.206 0v-27.923l34.007 34.007a8.602 8.602 0 0 0 12.166 0 8.602 8.602 0 0 0 0-12.166l-46.173-46.173V261.92l46.523 6.692c-19.156 24.744-30.574 55.764-30.574 89.406 0 45.046 20.464 85.395 52.578 112.259l-8.191 22.527a8.602 8.602 0 0 0 5.145 11.025c.97.353 1.963.521 2.94.521a8.607 8.607 0 0 0 8.086-5.666l6.456-17.754c22.868 14.808 50.105 23.417 79.317 23.417s56.449-8.609 79.317-23.417l6.456 17.754a8.606 8.606 0 0 0 8.086 5.666c.976 0 1.97-.167 2.94-.521a8.602 8.602 0 0 0 5.145-11.025l-8.191-22.527c32.113-26.864 52.578-67.214 52.578-112.259 0-33.641-11.418-64.661-30.574-89.406l46.522-6.692v181.568l-46.173 46.173a8.602 8.602 0 0 0 0 12.166 8.602 8.602 0 0 0 12.166 0L406.8 467.82v27.923a8.603 8.603 0 0 0 17.206 0V467.82l34.007 34.007a8.58 8.58 0 0 0 6.083 2.52c2.201 0 4.404-.84 6.083-2.52a8.602 8.602 0 0 0 0-12.166l-46.173-46.173V259.445l22.999-3.308a8.603 8.603 0 0 0 7.291-9.739l-11.249-78.261a8.605 8.605 0 0 0-9.74-7.292l-9.302 1.338v-35.305h13.076a8.603 8.603 0 0 0 0-17.206h-13.076v-40.81h-.002zM176.608 175.335H312.43v2.888l-25.547 3.674a8.605 8.605 0 0 0-7.292 9.74l3.632 25.257a146.004 146.004 0 0 0-38.703-5.206c-13.395 0-26.37 1.818-38.703 5.206l3.632-25.257a8.603 8.603 0 0 0-7.292-9.74l-25.547-3.674-.002-2.888zM53.001 240.329l8.799-61.23 3.234.465v62.496l-12.033-1.731zm29.24-58.291 108.951 15.666-3.673 25.545c-16.843 7.151-32.073 17.376-44.999 29.958l-60.279-8.671v-62.498zM244.52 487.141c-71.199 0-129.122-57.924-129.122-129.123s57.924-129.122 129.122-129.122 129.123 57.924 129.123 129.122-57.926 129.123-129.123 129.123zm101.999-233.934c-12.926-12.581-28.156-22.807-44.999-29.958l-3.673-25.545 108.95-15.666v62.497l-60.278 8.672zm80.72-74.108 8.799 61.23-12.035 1.731v-62.497l3.236-.464z" style="fill:#333"/>
	<path d="M138.674 55.46H8.603a8.603 8.603 0 0 1 0-17.206h130.071a8.603 8.603 0 0 1 0 17.206zM138.674 86.065H8.603a8.603 8.603 0 0 1 0-17.206h130.071a8.603 8.603 0 0 1 0 17.206zM503.397 86.065h-175.99a8.603 8.603 0 0 1 0-17.206h175.989a8.603 8.603 0 0 1 .001 17.206z" style="fill:#f7b239"/>
	<path d="M166.536 219.028c-.454 0-.913-.036-1.375-.11l-64.238-10.324a8.602 8.602 0 1 1 2.73-16.988l64.238 10.324a8.602 8.602 0 0 1-1.355 17.098zM320.238 219.026a8.636 8.636 0 0 1-6.08-2.524 8.477 8.477 0 0 1-2.352-4.394 8.39 8.39 0 0 1 0-3.372c.103-.539.275-1.09.482-1.606a8.525 8.525 0 0 1 1.87-2.788c1.595-1.606 3.82-2.524 6.08-2.524s4.485.918 6.08 2.524c.402.39.757.837 1.078 1.308.31.459.574.964.792 1.48a8.923 8.923 0 0 1 .654 3.292 8.39 8.39 0 0 1-.172 1.686 8.843 8.843 0 0 1-.482 1.606 8.525 8.525 0 0 1-1.87 2.788 8.632 8.632 0 0 1-6.08 2.524zM347.424 214.656a8.603 8.603 0 0 1-1.355-17.098l37.041-5.952c4.691-.756 9.106 2.438 9.859 7.129a8.603 8.603 0 0 1-7.129 9.859l-37.041 5.952c-.461.074-.921.11-1.375.11z" style="fill:#fff"/>
</svg>