<svg xmlns="http://www.w3.org/2000/svg" xml:space="preserve" width="800" height="800" viewBox="0 0 512 512">
	<path d="m503.872 15.246-80.656 55.886-22.105-15.249-3-15.878z" style="fill:#3a88d6"/>
	<path d="M423.216 71.132 311.521 238.064l-37.929 56.687-26.621-18.369 38.318-54.813L401.111 55.883z" style="fill:#f7b239"/>
	<path d="m311.976 238.367-61.962 258.385-59.048-99.154-182.842 14.08L284.943 221.33l.346.239-38.318 54.813 26.621 18.369 37.929-56.687z" style="fill:#3a88d6"/>
	<path d="M511.3 11.948a8.124 8.124 0 0 0-9.274-4.613L396.259 32.091a8.123 8.123 0 0 0-6.13 9.419l2.369 12.519-112.389 160.765L3.521 404.98a8.122 8.122 0 0 0 5.226 14.792l177.813-13.687 56.477 94.827a8.126 8.126 0 0 0 8.2 3.875 8.121 8.121 0 0 0 6.678-6.137l61.915-258.394L429.114 76.929l79.389-55.006a8.124 8.124 0 0 0 2.797-9.975zM403.146 67.151l8.869 6.118-140.591 210.117-13.117-9.049L403.146 67.151zM246.775 475.438l-48.835-81.996a8.12 8.12 0 0 0-7.603-3.942L37.609 401.257l215.96-148.497-13.261 18.969a8.123 8.123 0 0 0 2.045 11.34l26.627 18.369a8.128 8.128 0 0 0 11.364-2.169l13.522-20.209-47.091 196.378zM423.21 61.255 408.475 51.09l-.937-4.954 56.617-13.251-40.945 28.37z" style="fill:#333"/>
	<path d="m223.026 367.896-26.628-18.368a8.123 8.123 0 1 0-9.223 13.372l26.628 18.368a8.085 8.085 0 0 0 4.604 1.437 8.123 8.123 0 0 0 4.619-14.809zM210.89 328.591l26.629 18.366a8.085 8.085 0 0 0 4.604 1.437 8.122 8.122 0 0 0 4.619-14.809l-26.629-18.366a8.122 8.122 0 0 0-11.298 2.075 8.12 8.12 0 0 0 2.075 11.297zM244.88 413.703c-2.674-6.474-12.133-6.578-14.939-.147-1.375 3.154-.581 6.956 1.978 9.268 2.736 2.472 6.901 2.768 9.971.735 3.168-2.098 4.47-6.348 2.99-9.856-.205-.498.206.487 0 0zM252.494 389.345c-1.403-3.398-5.05-5.476-8.692-4.93-3.275.491-5.961 2.984-6.712 6.204-1.575 6.757 5.89 12.307 11.911 8.894 3.504-1.987 5.065-6.442 3.493-10.168-.206-.498.206.487 0 0z" style="fill:#333"/>
	<path d="M102.488 386.465a8.122 8.122 0 0 1-4.61-14.816l110.229-75.797a8.122 8.122 0 1 1 9.205 13.385l-110.229 75.797a8.077 8.077 0 0 1-4.595 1.431z" style="fill:#fff"/>
</svg>