<svg xmlns="http://www.w3.org/2000/svg" xml:space="preserve" viewBox="0 0 512.001 512.001">
	<path d="m192.461 402.331 11.032-11.032.177.177-38.452 38.452-92.52-92.519 38.452-38.453 42.892 42.892-11.032 11.021zM243.889 351.257l-40.219 40.219-.177-.177 10.546-10.546-49.462-49.451-10.535 10.546-42.892-42.892 40.22-40.219z" style="fill:#f2f2f2"/>
	<path d="m273.142 321.65 10.789-10.789.177.177-40.219 40.219-92.519-92.52 40.219-40.219 42.891 42.892-10.8 10.789z" style="fill:#f2f2f2"/>
	<path d="m313.35 281.442 21.579-21.578.176.176-50.997 50.998-.177-.177 10.779-10.778-49.452-49.451-10.778 10.778-42.891-42.892 40.208-40.208 42.549 42.549.342.343-10.789 10.778z" style="fill:#f2f2f2"/>
	<path d="m364.535 230.61-29.43 29.43-.176-.176-49.463-49.451-10.778 10.789-.342-.343-42.549-42.549 40.219-40.219z" style="fill:#f2f2f2"/>
	<path d="M310.312 99.708h54.376v130.838h-54.376z" style="fill:#f2f2f2" transform="rotate(134.999 337.502 165.127)"/>
	<path d="m214.039 380.753-10.546 10.546-11.032 11.032-49.451-49.462 11.032-11.021 10.535-10.546zM294.71 300.083l-10.779 10.778-10.789 10.789-49.462-49.451 10.8-10.789 10.778-10.778zM334.929 259.864l-21.579 21.578-49.451-49.462 10.789-10.778 10.778-10.789z" style="fill:#4d4d4d"/>
	<path d="m401.817 120.72 62.074 108.93-274.069 274.068L48.105 362.002l24.593-24.593 92.52 92.519 38.452-38.452 40.219-40.219 40.219-40.219 50.997-50.998 29.43-29.43 38.453-38.452-92.52-92.519 91.349-91.36 31.628 31.627z" style="fill:#3a88d6"/>
	<path d="m471.092 225.546-60.118-105.49 30.183-77.133a8.283 8.283 0 0 0-1.856-8.874L407.677 2.426a8.281 8.281 0 0 0-11.713 0L42.248 356.141a8.28 8.28 0 0 0 0 11.712l141.72 141.721a8.281 8.281 0 0 0 11.714 0l274.071-274.071a8.283 8.283 0 0 0 1.339-9.957zM192.466 390.615l-37.742-37.742 9.858-9.858 37.743 37.742-9.859 9.858zm-55.312-31.886 43.778 43.778-15.709 15.709-80.812-80.813 26.737-26.737 31.177 31.177-5.172 5.172a8.283 8.283 0 0 0 .001 11.714zm77.063 10.493-43.778-43.778a8.281 8.281 0 0 0-11.714 0l-4.687 4.687-31.177-31.177 28.506-28.506 80.813 80.813-17.963 17.961zm29.675-29.675-80.813-80.813 28.505-28.506 31.177 31.177-4.935 4.935a8.282 8.282 0 0 0 0 11.712l43.778 43.779-17.712 17.716zm29.247-29.606-37.742-37.742 9.859-9.858 37.742 37.742-9.859 9.858zm21.752-21.393-43.777-43.778a8.281 8.281 0 0 0-11.713 0l-4.923 4.923-31.178-31.177 28.497-28.497 31.177 31.177-4.93 4.93a8.28 8.28 0 0 0 0 11.712l43.778 43.778-6.931 6.932zm18.465-18.824-37.742-37.742 9.858-9.858 37.743 37.742-9.859 9.858zm21.752-21.393-43.778-43.778a8.281 8.281 0 0 0-11.714 0l-4.929 4.929-31.177-31.177 28.501-28.501 80.813 80.812-17.716 17.715zm29.428-29.429-80.813-80.813 26.74-26.74 80.813 80.812-26.74 26.741zM189.824 492.005 59.817 361.997l12.881-12.881 86.669 86.669a8.281 8.281 0 0 0 11.714 0l237.767-237.767a8.28 8.28 0 0 0 0-11.712l-86.669-86.669 79.642-79.642 21.937 21.937-29.651 75.771a8.28 8.28 0 0 0 .518 7.118l58.948 103.437-263.749 263.747z" style="fill:#333"/>
	<path d="M200.28 454.168c-1.323-3.125-4.443-5.183-7.851-5.1-3.463.084-6.571 2.385-7.655 5.676-1.152 3.493.201 7.438 3.26 9.484 2.843 1.902 6.704 1.827 9.466-.19 3.069-2.239 4.227-6.356 2.78-9.87-.21-.497.209.508 0 0zM239.428 415.02c-2.831-6.692-12.695-6.665-15.354.161-1.174 3.014-.455 6.583 1.849 8.872 2.528 2.512 6.478 3.119 9.645 1.497 3.789-1.94 5.481-6.595 3.86-10.53-.21-.497.209.508 0 0zM278.576 375.872c-1.971-4.68-7.812-6.538-12.11-3.798-4.428 2.824-5.01 9.107-1.396 12.831 2.752 2.675 7.016 3.191 10.286 1.134 3.372-2.12 4.74-6.494 3.22-10.167-.21-.497.209.508 0 0zM210.583 429.641c-3.579.761-6.321 3.778-6.63 7.44-.282 3.332 1.554 6.573 4.532 8.074 6.79 3.42 14.347-3.767 11.302-10.714-1.537-3.507-5.443-5.555-9.204-4.8M259.007 395.451c-1.257-2.983-4.165-5-7.406-5.109-3.639-.123-6.946 2.253-8.102 5.677-2.379 7.046 5.518 13.436 11.944 9.797 3.613-2.044 5.092-6.534 3.564-10.365-.21-.496.199.497 0 0zM298.144 356.303c-1.203-2.997-4.192-5.001-7.4-5.109-3.611-.121-6.976 2.251-8.1 5.677-2.31 7.042 5.482 13.457 11.948 9.797 3.572-2.021 5.152-6.567 3.552-10.365-.199-.496.21.497 0 0zM364.5 273.76l-53.62 53.62a8.28 8.28 0 0 0 0 11.712c1.618 1.617 3.738 2.426 5.857 2.426s4.239-.808 5.857-2.426l53.62-53.62A8.282 8.282 0 1 0 364.5 273.76zM410.311 239.662a8.261 8.261 0 0 0 5.857 2.426 8.257 8.257 0 0 0 5.857-2.426l7.288-7.288a8.28 8.28 0 0 0 0-11.712 8.281 8.281 0 0 0-11.713 0l-7.288 7.288a8.281 8.281 0 0 0-.001 11.712zM391.7 246.56l-7.288 7.288a8.28 8.28 0 0 0 0 11.712 8.261 8.261 0 0 0 5.857 2.426 8.257 8.257 0 0 0 5.857-2.426l7.288-7.288a8.28 8.28 0 0 0 0-11.712 8.286 8.286 0 0 0-11.714 0z" style="fill:#333"/>
	<path d="m197.817 397.335-.176-.177 11.713-11.713.176.177zM278.27 316.902l-.177-.176 11.694-11.731.177.176z"/>
	<path d="M364.226 91.202a8.257 8.257 0 0 1-5.857-2.426 8.28 8.28 0 0 1 0-11.712l35.338-35.338a8.281 8.281 0 0 1 11.713 0 8.28 8.28 0 0 1 0 11.712l-35.338 35.338a8.255 8.255 0 0 1-5.856 2.426zM306.25 149.178a8.257 8.257 0 0 1-5.857-2.426 8.28 8.28 0 0 1 0-11.712l6.626-6.626a8.281 8.281 0 0 1 11.713 0 8.28 8.28 0 0 1 0 11.712l-6.626 6.626a8.253 8.253 0 0 1-5.856 2.426zM267.047 188.381a8.257 8.257 0 0 1-5.857-2.426 8.28 8.28 0 0 1 0-11.712l6.626-6.626a8.281 8.281 0 0 1 11.713 0 8.28 8.28 0 0 1 0 11.712l-6.626 6.626a8.253 8.253 0 0 1-5.856 2.426zM227.843 227.585a8.257 8.257 0 0 1-5.857-2.426 8.28 8.28 0 0 1 0-11.712l6.626-6.626a8.281 8.281 0 0 1 11.713 0 8.28 8.28 0 0 1 0 11.712l-6.626 6.626a8.254 8.254 0 0 1-5.856 2.426zM184.775 270.653a8.257 8.257 0 0 1-5.857-2.426 8.28 8.28 0 0 1 0-11.712l6.626-6.626a8.281 8.281 0 0 1 11.713 0 8.28 8.28 0 0 1 0 11.712l-6.626 6.626a8.251 8.251 0 0 1-5.856 2.426zM148.885 306.543a8.257 8.257 0 0 1-5.857-2.426 8.28 8.28 0 0 1 0-11.712l6.626-6.626c3.236-3.235 8.479-3.235 11.713 0s3.235 8.479 0 11.712l-6.626 6.626a8.253 8.253 0 0 1-5.856 2.426zM108.025 347.403a8.257 8.257 0 0 1-5.857-2.426 8.28 8.28 0 0 1 0-11.712l6.626-6.626a8.281 8.281 0 0 1 11.713 0 8.28 8.28 0 0 1 0 11.712l-6.626 6.626a8.255 8.255 0 0 1-5.856 2.426zM346.557 108.871a8.293 8.293 0 0 1-5.853-2.429 8.047 8.047 0 0 1-1.038-1.259 8.426 8.426 0 0 1-.762-1.425 8.687 8.687 0 0 1-.464-1.546 8.127 8.127 0 0 1-.165-1.623c0-.541.055-1.082.165-1.623a8.687 8.687 0 0 1 .464-1.546 8.208 8.208 0 0 1 1.8-2.684 8.057 8.057 0 0 1 1.259-1.038 8.426 8.426 0 0 1 1.425-.762 8.605 8.605 0 0 1 1.546-.464c2.693-.541 5.554.342 7.476 2.264.387.375.729.806 1.038 1.259.298.442.552.928.761 1.425a8.605 8.605 0 0 1 .63 3.169c0 .541-.055 1.082-.166 1.623a8.525 8.525 0 0 1-.464 1.546 8.422 8.422 0 0 1-.761 1.425 8.316 8.316 0 0 1-6.891 3.688z" style="fill:#fff"/>
</svg>