<svg xmlns="http://www.w3.org/2000/svg" style="enable-background:new 0 0 252 76" viewBox="0 0 252 76"><style>.st0{fill:#fff}.st1{fill:#7140eb}</style><path d="m2.8 60.5 8.3-1.7 1.8-.1 7.5.5.2 3.4-17.5 1.3-.3-3.4zM0 16.2l10.3-.8.4 4.4-1.1.2-9.4-.4-.2-3.4zm6.6-.5 3.7-.3 2.3 23.1L14.4 63l-4.4.3-3.4-47.6zm.3 0 9.8-.7 18.8 37.8-2.6.2 12.2-40 4.5-.3-15 49-4.7.3-23-46.3zm36.3 41.9 9.3-1.8 2.5-.2 10.4.4.2 3.4L43.4 61l-.2-3.4zM47.9 39l-1.8-26.2 9.7-.7c.3 7.3.8 14.8 1.4 22.3l.2 3.1c.5 7.4 1.1 14.9 1.8 22.2l-10.1.7c-.1-7.2-.7-14.6-1.2-21.4zm2.9-26.5 11.2-.8.2 3.4-10.1 1.8-1 .1-.3-4.5zM67.2 71.7c.4-2.6 2.7-4.1 5.3-4.2 2-.1 4 .3 6.2 2.6l2.5 2.6-2.8 1.6-2.2-1.3c4.1-2.5 6.8-7.2 8.3-12.2L87 52l8.6-29.3 4.5-.3L88.5 59c-3.6 11.3-7 16.8-13.6 17.3-3.9.2-7.4-1.7-7.7-4.6zm4-43.4-7.2-.6-.2-2.8 19.7-1.4.2 2.8-7.8 1.7-4.7.3zm14.4 33.8L66.2 24.7l10-.7 13 27.8-3.6 10.3zm10.3-35.6-7.2-.5-.2-2.8 14.5-1.1.2 2.8-5.8 1.5-1.5.1z" class="st0"/><path d="m120.5 24.2-5.6.4-.3-3.7 8.6-1.7-3 1.8c.2-8.3 1.7-12.6 4.8-16 3.3-3.7 7.3-5.1 11.2-5.4 3.9-.3 7.3.7 8.4 3.9.1 2.3-1.6 4.1-4.7 4.3-2.2.2-4.2-.8-6.3-3.2l-2.9-2.4 6.7-2 1.4 2c-.8-.4-1.9-.8-2.8-.7-2.4.2-4.6 2.2-5.7 4.2-1.7 3.3-2.1 8.2-.9 16.5l1.2 16.1c.4 5 .8 10 1.3 15.1l-9.5.7c-.2-5-.5-10.1-.9-15.1l-1-14.8zm17.5 26 .2 2.9-20.7 1.5-.2-2.9 7.8-2 4.7-.3 8.2.8zm.4-31.6.3 4.3-13.6 1-.3-4.3 13.6-1zM175.3 29.4c.1 1.6 0 2.9-.2 4l-28.6 2.1-.2-3.4 16-1.2c3.6-.3 4.4-1.8 4.2-4.4-.3-4.4-3.5-7.2-7.2-6.9-4 .3-7.9 4.2-7.1 14.5.6 8.9 5.6 13 12.2 12.5 4.4-.3 7.2-2.4 9.5-5.2L176 43c-2.5 5.6-7.4 8.9-14.5 9.5-10.5.8-18.2-5.5-19-16.7-.8-11.5 7.4-19 16.9-19.7 8.9-.7 15.2 4.6 15.9 13.3zM182.6 47.9l-.7-8.3 5-.4 2.5 8.9-4.1-1.2-.2-2.7c3.1 1.7 5.9 2.5 9.5 2.2 5-.4 7.5-2.3 7.2-5.4-.2-2.7-2.1-4.1-7.1-5.2l-3.8-.9c-5.8-1.4-9.5-4.4-9.8-9.5-.4-5.9 4.3-11.2 13.6-11.9 4.3-.3 7.7.5 11.4 2.1l.1 7.6-4.9.4-2.4-7.9 3.6 1.2.2 2.3c-2.7-1.5-4.8-2.2-7.9-2-4 .3-6.2 2.1-6 4.9.2 2.6 1.8 3.8 7 5.1l3 .7c7.5 1.8 10.6 5.2 11 10.1.5 6.5-4.9 11.5-15 12.2-4.4.2-8.2-.6-12.2-2.3zM232.2 42.5c1.5-.1 2.8-.8 4.5-2.1l1.9 1.7c-1.7 3.1-4.9 5.1-9.5 5.4-6 .4-9.8-2-10.3-8.4-.2-2.1-.2-3.8-.4-6.6l-1.1-15.4-5.6.4-.3-3.7 9-1.8-3.5 2.9 2.6-12.3 6-.4.5 12.8 1.7 22.7c.4 3.6 2.1 5 4.5 4.8zm2.9-31 .3 4.3-13.6 1-.3-4.3 13.6-1z" class="st1"/></svg>