<svg xmlns="http://www.w3.org/2000/svg" width="800" height="800" viewBox="-5 0 32 32" fill="#F78C6B">
	<path d="M 17.48 26.6 c -0.12 0 -0.28 -0.04 -0.4 -0.08 l -5.96 -3.12 l -5.96 3.12 c -0.28 0.16 -0.64 0.12 -0.88 -0.08 s -0.4 -0.52 -0.32 -0.8 L 5.08 19 L 0.24 14.28 c -0.24 -0.24 -0.32 -0.56 -0.2 -0.84 c 0.08 -0.32 0.36 -0.52 0.68 -0.56 l 6.68 -0.96 l 3 -6.04 c 0.16 -0.28 0.44 -0.48 0.76 -0.48 s 0.6 0.2 0.76 0.48 l 3 6.04 l 6.68 0.96 c 0.32 0.04 0.56 0.28 0.68 0.56 c 0.08 0.32 0 0.64 -0.2 0.84 L 17.16 19 l 1.12 6.64 c 0.04 0.32 -0.08 0.64 -0.32 0.8 c -0.16 0.12 -0.32 0.16 -0.48 0.16 z z z"/>
</svg>