<svg xmlns="http://www.w3.org/2000/svg" xml:space="preserve" viewBox="0 0 512 512">
	<path d="M100.782 294.804c12.128 0 22.009 9.869 22.009 22.009s-9.881 22.009-22.009 22.009c-12.14 0-22.009-9.869-22.009-22.009 0-12.139 9.869-22.009 22.009-22.009zM411.225 294.804c12.128 0 22.009 9.869 22.009 22.009s-9.881 22.009-22.009 22.009c-12.14 0-22.009-9.869-22.009-22.009 0-12.139 9.87-22.009 22.009-22.009zM436.127 73.557h35.33v32.434h-35.33z" style="fill:#f7b239"/>
	<path d="M503.316 105.99v332.452H364.925l-26.48-36.28h-19.889V105.99h184.76zm-29.539 210.823c0-34.543-28.009-62.552-62.552-62.552-34.554 0-62.552 28.009-62.552 62.552s27.998 62.552 62.552 62.552c34.543 0 62.552-28.009 62.552-62.552zM193.448 105.991h125.104v296.172H193.448z" style="fill:gray"/>
	<path d="M193.451 105.99v296.172H173.55l-26.48 36.28H8.691V105.99h184.76zm-30.117 210.823c0-34.543-28.009-62.552-62.552-62.552-34.554 0-62.552 28.009-62.552 62.552s27.998 62.552 62.552 62.552c34.542 0 62.552-28.009 62.552-62.552z" style="fill:gray"/>
	<path d="M100.782 254.261c34.543 0 62.552 28.009 62.552 62.552s-28.009 62.552-62.552 62.552c-34.554 0-62.552-28.009-62.552-62.552 0-34.542 27.998-62.552 62.552-62.552zm22.009 62.552c0-12.14-9.881-22.009-22.009-22.009-12.14 0-22.009 9.869-22.009 22.009s9.869 22.009 22.009 22.009c12.128 0 22.009-9.869 22.009-22.009z" style="fill:#4d4d4d"/>
	<path d="M55.605 325.501a8.688 8.688 0 0 1-8.688-8.688c0-29.701 24.162-53.864 53.864-53.864a8.688 8.688 0 0 1 8.688 8.688 8.688 8.688 0 0 1-8.688 8.688c-20.12 0-36.489 16.369-36.489 36.489a8.686 8.686 0 0 1-8.687 8.687z" style="fill:#fff"/>
	<path d="M411.225 254.261c34.543 0 62.552 28.009 62.552 62.552s-28.009 62.552-62.552 62.552c-34.554 0-62.552-28.009-62.552-62.552s27.998-62.552 62.552-62.552zm22.009 62.552c0-12.14-9.881-22.009-22.009-22.009-12.14 0-22.009 9.869-22.009 22.009s9.869 22.009 22.009 22.009c12.128 0 22.009-9.869 22.009-22.009z" style="fill:#4d4d4d"/>
	<path d="M503.312 97.303h-23.167V73.557a8.688 8.688 0 0 0-8.688-8.688h-35.33a8.688 8.688 0 0 0-8.688 8.688v23.747h-17.955v-9.846c0-4.798-3.889-8.688-8.688-8.688s-8.688 3.89-8.688 8.688v9.846H119.891v-9.846a8.688 8.688 0 0 0-8.688-8.688 8.688 8.688 0 0 0-8.688 8.688v9.846H84.561v-9.846c0-4.798-3.889-8.688-8.688-8.688s-8.688 3.89-8.688 8.688v9.846H49.231v-9.846c0-4.798-3.889-8.688-8.688-8.688s-8.688 3.89-8.688 8.688v9.846H8.688A8.688 8.688 0 0 0 0 105.992v332.453a8.688 8.688 0 0 0 8.688 8.688h138.385a8.69 8.69 0 0 0 7.019-3.567l23.876-32.719h156.066l23.876 32.719a8.69 8.69 0 0 0 7.019 3.567h138.384a8.688 8.688 0 0 0 8.688-8.688V105.991a8.69 8.69 0 0 0-8.689-8.688zm-58.497-15.059h17.955v15.059h-17.955V82.244zm-134.951 32.435v278.792H202.136V114.679h107.728zM173.552 393.471a8.69 8.69 0 0 0-7.019 3.567l-23.876 32.718H17.376V114.679H184.76v278.792h-11.208zm321.072 36.285H369.343l-23.876-32.718a8.69 8.69 0 0 0-7.019-3.567H327.24V114.679h167.385v315.077z" style="fill:#333"/>
	<path d="M100.778 245.575c-39.282 0-71.24 31.958-71.24 71.24s31.958 71.24 71.24 71.24 71.24-31.958 71.24-71.24-31.958-71.24-71.24-71.24zm0 125.104c-29.702 0-53.864-24.164-53.864-53.864s24.162-53.864 53.864-53.864 53.864 24.164 53.864 53.864c.001 29.7-24.162 53.864-53.864 53.864z" style="fill:#333"/>
	<path d="M100.778 286.118c-16.926 0-30.697 13.771-30.697 30.697s13.771 30.697 30.697 30.697 30.697-13.771 30.697-30.697-13.771-30.697-30.697-30.697zm0 44.018c-7.345 0-13.321-5.976-13.321-13.321s5.976-13.321 13.321-13.321 13.321 5.976 13.321 13.321c.001 7.345-5.975 13.321-13.321 13.321zM411.222 245.575c-39.282 0-71.24 31.958-71.24 71.24s31.958 71.24 71.24 71.24 71.24-31.958 71.24-71.24-31.959-71.24-71.24-71.24zm0 125.104c-29.702 0-53.864-24.164-53.864-53.864s24.162-53.864 53.864-53.864 53.864 24.164 53.864 53.864c0 29.7-24.162 53.864-53.864 53.864z" style="fill:#333"/>
	<path d="M411.222 286.118c-16.926 0-30.697 13.771-30.697 30.697s13.771 30.697 30.697 30.697 30.697-13.771 30.697-30.697-13.771-30.697-30.697-30.697zm0 44.018c-7.345 0-13.321-5.976-13.321-13.321s5.976-13.321 13.321-13.321 13.321 5.976 13.321 13.321-5.976 13.321-13.321 13.321zM37.647 141.321h20.851a8.688 8.688 0 0 0 8.688-8.688 8.688 8.688 0 0 0-8.688-8.688H37.647a8.688 8.688 0 0 0-8.688 8.688 8.688 8.688 0 0 0 8.688 8.688zM37.647 168.35h20.851c4.799 0 8.688-3.89 8.688-8.688s-3.889-8.688-8.688-8.688H37.647c-4.799 0-8.688 3.89-8.688 8.688s3.889 8.688 8.688 8.688zM37.647 195.379h20.851a8.688 8.688 0 0 0 8.688-8.688 8.688 8.688 0 0 0-8.688-8.688H37.647a8.688 8.688 0 0 0-8.688 8.688 8.688 8.688 0 0 0 8.688 8.688zM37.647 222.407h20.851c4.799 0 8.688-3.89 8.688-8.688s-3.889-8.688-8.688-8.688H37.647c-4.799 0-8.688 3.89-8.688 8.688s3.889 8.688 8.688 8.688zM151.251 135.957c1.355 3.201 4.534 5.367 8.029 5.363 3.543-.005 6.801-2.237 8.089-5.532 2.839-7.265-4.988-14.326-11.931-10.933-4.038 1.973-5.936 6.944-4.187 11.102.221.521-.219-.521 0 0zM151.251 162.982c1.363 3.294 4.681 5.436 8.238 5.359 3.658-.079 6.937-2.553 8.056-6.027 2.342-7.268-5.545-13.796-12.267-10.352-3.936 2.016-5.75 6.929-4.027 11.02.221.532-.219-.522 0 0zM151.251 190.018c1.392 3.289 4.794 5.505 8.375 5.354 3.519-.147 6.68-2.528 7.848-5.842 1.175-3.338.103-7.187-2.59-9.473-2.867-2.434-7.085-2.652-10.257-.683-3.656 2.269-4.854 6.891-3.313 10.789M151.251 217.043c1.337 3.157 4.409 5.283 7.848 5.36 3.693.081 7.109-2.283 8.351-5.756 2.642-7.389-5.537-14.353-12.419-10.501-3.772 2.111-5.464 6.892-3.78 10.897.221.521-.219-.521 0 0zM125.767 135.957a9.221 9.221 0 0 0 1.877 2.826c2.605 2.525 6.559 3.265 9.862 1.703 3.114-1.473 5.107-4.769 4.969-8.213-.287-7.159-9.092-10.901-14.456-6.131-2.716 2.415-3.667 6.452-2.252 9.815.221.521-.219-.521 0 0zM125.767 162.982a8.976 8.976 0 0 0 1.877 2.826c5.404 5.245 14.861 1.493 14.84-6.151-.021-7.626-9.421-11.393-14.84-6.139-2.414 2.486-3.235 6.239-1.877 9.464.221.532-.219-.522 0 0zM125.767 190.018c1.394 3.291 4.799 5.498 8.379 5.353 3.554-.144 6.747-2.58 7.882-5.942 1.128-3.344.001-7.168-2.699-9.426-2.869-2.399-7.05-2.585-10.201-.622-3.645 2.272-4.839 6.888-3.299 10.781M125.767 217.043a9.221 9.221 0 0 0 1.877 2.826c2.605 2.525 6.559 3.265 9.862 1.703 3.114-1.473 5.107-4.769 4.969-8.213-.287-7.159-9.092-10.901-14.456-6.131-2.716 2.415-3.667 6.452-2.252 9.815.221.521-.219-.521 0 0zM444.815 132.633a8.688 8.688 0 0 0 8.688 8.688h20.851a8.688 8.688 0 0 0 8.688-8.688 8.688 8.688 0 0 0-8.688-8.688h-20.851a8.688 8.688 0 0 0-8.688 8.688zM474.353 150.974h-20.851c-4.799 0-8.688 3.89-8.688 8.688s3.889 8.688 8.688 8.688h20.851c4.799 0 8.688-3.89 8.688-8.688s-3.889-8.688-8.688-8.688zM474.353 178.003h-20.851a8.688 8.688 0 0 0-8.688 8.688 8.688 8.688 0 0 0 8.688 8.688h20.851a8.688 8.688 0 0 0 8.688-8.688 8.688 8.688 0 0 0-8.688-8.688zM474.353 205.032h-20.851c-4.799 0-8.688 3.89-8.688 8.688s3.889 8.688 8.688 8.688h20.851c4.799 0 8.688-3.89 8.688-8.688s-3.889-8.688-8.688-8.688zM344.699 135.957c1.456 3.439 5.001 5.649 8.747 5.333 3.362-.285 6.311-2.557 7.452-5.729 2.643-7.351-5.426-14.218-12.265-10.583-3.874 2.058-5.643 6.919-3.934 10.979.221.521-.219-.521 0 0zM344.699 162.982a8.976 8.976 0 0 0 1.877 2.826c2.729 2.649 6.865 3.307 10.24 1.512 3.048-1.621 4.916-5.059 4.556-8.507-.754-7.203-9.631-10.303-14.796-5.296-2.414 2.487-3.235 6.24-1.877 9.465.221.532-.219-.522 0 0zM347.897 193.91c6.065 3.993 14.373-1.027 13.448-8.281-.906-7.103-9.678-10.021-14.769-5.086-3.733 3.845-3.219 10.379 1.321 13.367zM344.699 217.043c2.339 5.523 9.888 7.224 14.167 2.815 4.789-4.654 2.298-12.951-4.033-14.563-6.762-1.722-12.847 5.3-10.134 11.748.221.521-.219-.521 0 0zM370.183 135.957c1.387 3.276 4.664 5.449 8.241 5.357 3.489-.089 6.618-2.312 7.88-5.556 1.322-3.396.308-7.365-2.457-9.731-2.809-2.404-6.929-2.724-10.104-.85-3.639 2.151-5.199 6.885-3.56 10.78.221.521-.219-.521 0 0zM370.183 162.982a8.976 8.976 0 0 0 1.877 2.826c3.395 3.296 8.907 3.371 12.29 0 2.905-2.894 3.331-7.561 1.077-10.97-2.343-3.543-7.1-4.835-10.929-3.023-4.109 1.944-6.092 6.948-4.315 11.167.221.532-.219-.522 0 0zM370.183 190.018c1.472 3.477 5.096 5.698 8.878 5.319 3.626-.363 6.673-3.019 7.568-6.538.931-3.66-.72-7.627-3.959-9.56-3.414-2.038-7.776-1.443-10.61 1.303-2.43 2.503-3.213 6.234-1.877 9.476.221.521-.219-.533 0 0zM370.183 217.043c1.387 3.276 4.664 5.449 8.241 5.357 3.489-.089 6.618-2.312 7.88-5.556 2.945-7.562-5.631-14.696-12.561-10.571-3.632 2.163-5.205 6.86-3.56 10.77.221.521-.219-.521 0 0zM229.937 150.588h52.127a8.688 8.688 0 0 0 8.688-8.688 8.688 8.688 0 0 0-8.688-8.688h-52.127a8.688 8.688 0 0 0-8.688 8.688 8.688 8.688 0 0 0 8.688 8.688zM229.937 179.548h52.127a8.688 8.688 0 0 0 8.688-8.688 8.688 8.688 0 0 0-8.688-8.688h-52.127a8.688 8.688 0 0 0-8.688 8.688 8.688 8.688 0 0 0 8.688 8.688zM282.063 191.131h-52.127c-4.799 0-8.688 3.89-8.688 8.688s3.889 8.688 8.688 8.688h52.127c4.799 0 8.688-3.89 8.688-8.688s-3.889-8.688-8.688-8.688zM241.559 244.589c-3.511.731-6.264 3.538-6.865 7.083-.641 3.788 1.385 7.646 4.854 9.284 3.287 1.552 7.282.844 9.852-1.714 2.598-2.587 3.265-6.665 1.662-9.95-1.702-3.487-5.695-5.469-9.503-4.703M251.277 276.815c-2.348-5.67-9.802-7.058-14.167-2.826-4.934 5.082-2.019 13.86 5.083 14.768 6.463.825 11.617-5.926 9.084-11.942-.221-.533.219.521 0 0zM241.559 298.638c-3.637.754-6.45 3.757-6.917 7.446-.477 3.773 1.641 7.468 5.1 9.009 3.309 1.473 7.266.695 9.777-1.914 2.548-2.647 3.136-6.732 1.461-9.992-1.744-3.396-5.671-5.303-9.421-4.549M251.277 330.864c-1.347-3.183-4.479-5.309-7.944-5.354-3.815-.049-7.273 2.522-8.387 6.157-1.034 3.38.171 7.154 2.932 9.342 2.892 2.294 7.043 2.456 10.125.449 3.454-2.246 4.878-6.784 3.274-10.594-.221-.521.219.522 0 0zM276.762 249.778c-1.41-3.331-4.804-5.538-8.445-5.353-3.793.193-7.066 2.899-8.002 6.569-.837 3.284.398 6.83 3.047 8.929 3.006 2.383 7.385 2.459 10.483.207 3.206-2.328 4.458-6.687 2.917-10.352-.222-.521.218.522 0 0zM273.564 272.911c-3.802-2.502-9.063-1.648-11.789 2.033-2.557 3.453-2.166 8.264.818 11.333 3.802 3.691 10.217 3.246 13.271-1.18 2.72-3.938 1.721-9.532-2.3-12.186-.475-.313.474.313 0 0zM276.762 303.84c-2.39-5.644-9.78-7.08-14.167-2.826-4.811 4.956-2.184 13.479 4.661 14.703 6.6 1.18 12.11-5.691 9.506-11.877-.222-.522.218.521 0 0zM276.762 330.864c-1.41-3.331-4.804-5.538-8.445-5.353-3.793.193-7.066 2.899-8.002 6.569-.837 3.284.398 6.83 3.047 8.929 3.006 2.383 7.385 2.459 10.483.207 3.206-2.328 4.458-6.687 2.917-10.352-.222-.521.218.522 0 0zM391.44 407.317c-1.378-3.26-4.642-5.434-8.197-5.36-3.717.078-7.053 2.603-8.135 6.163-2.287 7.525 6.256 14.022 12.905 9.887 3.556-2.212 5.057-6.815 3.427-10.69-.221-.521.219.521 0 0zM420.4 407.317c-1.381-3.265-4.664-5.449-8.23-5.357-3.628.093-6.897 2.514-8.034 5.959-2.534 7.675 6.335 14.438 13.068 9.953 3.391-2.264 4.78-6.789 3.196-10.555-.222-.521.218.521 0 0zM449.359 407.317c-1.354-3.201-4.52-5.363-8.017-5.363-3.633 0-6.961 2.348-8.18 5.765-1.242 3.476-.09 7.454 2.799 9.744 2.95 2.34 7.259 2.467 10.343.307 3.306-2.317 4.593-6.716 3.055-10.453-.221-.521.219.533 0 0zM478.318 407.317c-1.409-3.33-4.804-5.538-8.445-5.353-3.632.185-6.824 2.684-7.887 6.157-1.014 3.312.123 7.046 2.799 9.237 2.917 2.387 7.195 2.612 10.336.512 3.396-2.271 4.786-6.776 3.197-10.553-.221-.521.219.521 0 0zM49.721 407.317c-1.355-3.203-4.518-5.363-8.017-5.363-3.634 0-6.959 2.346-8.18 5.765-1.242 3.476-.09 7.454 2.799 9.744 2.95 2.34 7.258 2.467 10.343.307 3.306-2.317 4.593-6.716 3.055-10.453-.221-.521.219.533 0 0zM78.68 407.317c-2.969-7.02-13.317-6.994-16.106.169-2.84 7.294 5.084 14.459 12.061 10.875 3.948-2.03 5.774-6.935 4.045-11.044-.221-.521.219.521 0 0zM107.639 407.317c-2.942-6.955-13.116-7.016-16.045 0-1.484 3.556-.356 7.819 2.689 10.179 2.802 2.172 6.75 2.42 9.798.599 3.634-2.17 5.204-6.866 3.558-10.778-.221-.521.219.521 0 0zM136.599 407.317c-2.974-7.031-13.334-6.997-16.121.198-1.362 3.516-.225 7.612 2.721 9.948 2.791 2.212 6.77 2.451 9.821.638 3.643-2.164 5.229-6.86 3.579-10.784-.222-.521.219.521 0 0z" style="fill:#333"/>
	<path d="M107.153 140.764H81.958c-4.799 0-8.688-3.89-8.688-8.688s3.889-8.688 8.688-8.688h25.195c4.799 0 8.688 3.89 8.688 8.688s-3.889 8.688-8.688 8.688zM428.022 140.764h-25.195c-4.799 0-8.688-3.89-8.688-8.688s3.889-8.688 8.688-8.688h25.195c4.799 0 8.688 3.89 8.688 8.688s-3.889 8.688-8.688 8.688zM262.954 231.117h-46.335c-4.799 0-8.688-3.89-8.688-8.688s3.889-8.688 8.688-8.688h46.335c4.799 0 8.688 3.89 8.688 8.688s-3.889 8.688-8.688 8.688zM284.963 231.117a8.486 8.486 0 0 1-1.703-.174 8.159 8.159 0 0 1-1.622-.498 8.01 8.01 0 0 1-1.494-.788 8.532 8.532 0 0 1-1.321-1.089 8.475 8.475 0 0 1-1.089-1.321 8.77 8.77 0 0 1-.799-1.494 9.16 9.16 0 0 1-.487-1.622 8.485 8.485 0 0 1 0-3.406c.105-.544.278-1.1.487-1.622.22-.521.488-1.031.799-1.494a8.532 8.532 0 0 1 1.089-1.321 8.495 8.495 0 0 1 1.321-1.089 8.77 8.77 0 0 1 1.494-.799 8.996 8.996 0 0 1 1.622-.487 8.411 8.411 0 0 1 3.404 0c.544.104 1.1.278 1.622.487a8.58 8.58 0 0 1 2.815 1.888 8.59 8.59 0 0 1 1.887 2.815c.208.521.382 1.077.487 1.622a8.414 8.414 0 0 1 0 3.406 8.964 8.964 0 0 1-.487 1.622 8.836 8.836 0 0 1-.798 1.494 8.648 8.648 0 0 1-1.089 1.321 8.59 8.59 0 0 1-1.321 1.089 8.042 8.042 0 0 1-1.494.788 8.179 8.179 0 0 1-1.622.498 8.467 8.467 0 0 1-1.701.174zM366.049 325.501a8.688 8.688 0 0 1-8.688-8.688c0-29.701 24.162-53.864 53.864-53.864a8.688 8.688 0 0 1 8.688 8.688 8.688 8.688 0 0 1-8.688 8.688c-20.12 0-36.489 16.369-36.489 36.489a8.686 8.686 0 0 1-8.687 8.687z" style="fill:#fff"/>
</svg>