<svg xmlns="http://www.w3.org/2000/svg" xml:space="preserve" width="800" height="800" viewBox="0 0 512.002 512.002">
	<path d="M240.914 360.068V460.35H188.19l9.356-67.443 4.91-35.428v-.012a503.045 503.045 0 0 0 38.458 2.601zM323.805 460.35h-52.712V360.068a503.086 503.086 0 0 0 38.457-2.6v.012l4.91 35.428 9.345 67.442z" style="fill:#f2f2f2"/>
	<path d="M271.094 360.079v100.27h-30.181V360.067c10.053.302 20.117.302 30.181 0v.012zM353.152 460.35l7.325 42.949H151.531l7.325-42.949h164.951z" style="fill:#f95428"/>
	<path d="M353.151 460.35h-51.076l7.326 42.949h51.076z" style="opacity:.25;fill:#4d4d4d;enable-background:new"/>
	<path d="M219.439 9.992a506.448 506.448 0 0 1 36.565-1.323c12.188 0 24.377.441 36.565 1.323a514.31 514.31 0 0 1 36.565 3.947c5.85.847 11.713 1.799 17.575 2.844 14.429 2.577 25.34 14.533 26.733 29.136 8.892 92.377 8.892 184.754 0 277.142-1.393 14.591-12.305 26.548-26.733 29.125a517.405 517.405 0 0 1-37.157 5.282 503.086 503.086 0 0 1-38.457 2.6 502.813 502.813 0 0 1-30.181 0 503.086 503.086 0 0 1-38.457-2.6 517.245 517.245 0 0 1-37.157-5.282c-14.429-2.577-25.34-14.533-26.745-29.125-4.434-46.188-6.663-92.377-6.663-138.565s2.217-92.389 6.663-138.577c1.405-14.603 12.316-26.559 26.745-29.136a540.595 540.595 0 0 1 17.575-2.844 514.157 514.157 0 0 1 36.564-3.947z" style="fill:#ccc"/>
	<path d="M202.456 357.469a503.086 503.086 0 0 0 38.457 2.6v35.985a503.086 503.086 0 0 1-38.457-2.6 341.07 341.07 0 0 1-4.91-.546l4.91-35.428v-.011zM314.461 392.907c-1.637.197-3.273.371-4.91.546a503.086 503.086 0 0 1-38.457 2.6v-35.985a503.086 503.086 0 0 0 38.457-2.6v.012l4.91 35.427z" style="opacity:.25;fill:#4d4d4d;enable-background:new"/>
	<path d="M373.442 45.919c-1.393-14.603-12.305-26.559-26.733-29.136a545.498 545.498 0 0 0-17.575-2.844 514.31 514.31 0 0 0-36.565-3.947 506.448 506.448 0 0 0-36.565-1.323c-10.061 0-20.12.318-30.181.919 2.128.127 4.257.251 6.384.404a514.31 514.31 0 0 1 36.565 3.947c5.85.847 11.713 1.799 17.575 2.844 14.429 2.577 25.34 14.533 26.733 29.136 8.892 92.377 8.892 184.754 0 277.142-1.393 14.591-12.305 26.548-26.733 29.125a517.405 517.405 0 0 1-37.157 5.282 507.554 507.554 0 0 1-23.367 1.911c5.031.298 10.062.544 15.09.69 10.053.302 20.117.302 30.181 0a503.086 503.086 0 0 0 38.457-2.6 517.245 517.245 0 0 0 37.157-5.282c14.429-2.577 25.34-14.533 26.733-29.125 8.893-92.388 8.893-184.766.001-277.143z" style="opacity:.25;fill:#4d4d4d;enable-background:new"/>
	<path d="M382.114 45.083c-1.775-18.458-15.705-33.619-33.877-36.871-61.203-10.95-123.268-10.95-184.472 0-18.171 3.251-32.102 18.413-33.877 36.871-8.893 92.502-8.893 186.306 0 278.808 1.775 18.458 15.705 33.619 33.877 36.871 9.596 1.717 19.216 3.133 28.848 4.311l-12.005 86.567H158.85a8.706 8.706 0 0 0-8.582 7.242l-7.325 42.95a8.706 8.706 0 0 0 8.582 10.17H360.47a8.702 8.702 0 0 0 8.582-10.17l-7.324-42.95a8.704 8.704 0 0 0-8.582-7.242H331.39l-11.996-86.567c9.63-1.178 19.248-2.593 28.842-4.31 18.171-3.251 32.101-18.413 33.876-36.871 8.895-92.502 8.895-186.307.002-278.809zm-172.18 321.849c7.42.658 14.846 1.152 22.275 1.492v83.217h-34.022l11.747-84.709zm39.686 84.707v-82.736c2.127.026 4.254.071 6.381.071 2.129 0 4.259-.045 6.388-.071v82.736H249.62zm100.535 42.95H161.842l4.354-25.538h179.603l4.356 25.538zm-36.344-42.95h-34.01v-83.217a520.79 520.79 0 0 0 22.272-1.492l11.738 84.709zm31.36-108.018c-59.17 10.585-119.172 10.585-178.339 0-10.517-1.882-18.581-10.681-19.611-21.397a1418.926 1418.926 0 0 1-2.347-27.457h30.525a8.706 8.706 0 0 0 0-17.412h-31.755c-.353-5.479-.674-10.96-.965-16.445h32.72a8.706 8.706 0 0 0 0-17.412h-33.537c-.224-5.48-.417-10.961-.578-16.445h34.115a8.706 8.706 0 0 0 0-17.412h-34.522c-.095-5.481-.159-10.963-.193-16.445h34.715a8.706 8.706 0 0 0 0-17.412h-34.715c.033-5.482.098-10.964.193-16.445h34.522a8.706 8.706 0 0 0 0-17.412h-34.116c.161-5.484.354-10.965.578-16.445h33.538a8.706 8.706 0 0 0 0-17.412h-32.72c.29-5.485.612-10.966.965-16.445h31.755a8.706 8.706 0 0 0 0-17.412h-30.526a1436.59 1436.59 0 0 1 2.348-27.466c1.03-10.717 9.094-19.515 19.611-21.397 2.443-.436 4.89-.829 7.336-1.229v7.884a8.706 8.706 0 0 0 17.412 0V21.566a507.833 507.833 0 0 1 19.153-2.112v12.549a8.706 8.706 0 0 0 17.412 0V18.216a503.972 503.972 0 0 1 19.153-.706v14.498a8.706 8.706 0 0 0 17.412 0V17.51c6.387.11 12.771.353 19.153.706v13.792a8.706 8.706 0 0 0 17.412 0V19.459c6.39.577 12.775 1.291 19.153 2.112v10.438a8.706 8.706 0 0 0 17.412 0v-7.884c2.444.4 4.888.792 7.329 1.228 10.517 1.882 18.581 10.681 19.611 21.397.879 9.141 1.645 18.3 2.348 27.466h-30.519a8.706 8.706 0 0 0 0 17.412h31.748c.353 5.479.674 10.96.965 16.445H336.61a8.706 8.706 0 0 0 0 17.412h33.531c.224 5.48.417 10.961.578 16.445h-34.108a8.706 8.706 0 0 0 0 17.412h34.517c.095 5.481.159 10.963.193 16.445h-34.708a8.706 8.706 0 0 0 0 17.412h34.708c-.033 5.482-.098 10.964-.193 16.445h-34.517a8.706 8.706 0 0 0 0 17.412h34.108c-.161 5.484-.354 10.965-.578 16.445h-33.53a8.706 8.706 0 0 0 0 17.412h32.713c-.29 5.485-.612 10.966-.965 16.445h-31.748a8.706 8.706 0 0 0 0 17.412h30.518a1427.58 1427.58 0 0 1-2.347 27.457c-1.031 10.715-9.095 19.514-19.611 21.394z" style="fill:#333"/>
	<path d="M305.409 74.215h-98.808a8.706 8.706 0 0 0 0 17.412h98.808a8.706 8.706 0 0 0 0-17.412zM305.409 108.072h-98.808a8.706 8.706 0 0 0 0 17.412h98.808a8.706 8.706 0 0 0 0-17.412zM305.409 141.929h-98.808a8.706 8.706 0 0 0 0 17.412h98.808a8.706 8.706 0 0 0 0-17.412zM305.409 175.785h-98.808a8.706 8.706 0 0 0 0 17.412h98.808a8.706 8.706 0 0 0 0-17.412zM305.409 209.642h-98.808a8.706 8.706 0 0 0 0 17.412h98.808a8.706 8.706 0 0 0 0-17.412zM305.409 243.5h-98.808a8.706 8.706 0 0 0 0 17.412h98.808a8.706 8.706 0 0 0 0-17.412zM305.409 277.356h-98.808a8.706 8.706 0 0 0 0 17.412h98.808a8.706 8.706 0 0 0 0-17.412z" style="fill:#333"/>
	<path d="M166.284 57.295a8.737 8.737 0 0 1-6.152-2.554 8.618 8.618 0 0 1-1.892-2.82 9.054 9.054 0 0 1-.662-3.331c0-2.287.929-4.539 2.554-6.152a8.121 8.121 0 0 1 1.323-1.091c.464-.313.975-.58 1.497-.801a9.054 9.054 0 0 1 1.625-.488c2.832-.569 5.839.348 7.859 2.38.406.395.766.836 1.08 1.323.313.464.592.975.801 1.497.221.522.395 1.08.499 1.625.116.569.174 1.138.174 1.706s-.058 1.138-.174 1.706a8.19 8.19 0 0 1-.499 1.625 8.093 8.093 0 0 1-.801 1.497 7.822 7.822 0 0 1-1.08 1.323 8.734 8.734 0 0 1-6.152 2.555zM165.252 318.005c-4.463 0-8.264-3.413-8.662-7.942-3.68-41.783-5.546-84.03-5.546-125.565 0-37.184 1.493-74.969 4.437-112.308.378-4.793 4.571-8.382 9.363-7.994a8.704 8.704 0 0 1 7.994 9.363 1417.584 1417.584 0 0 0-4.382 110.939c0 41.029 1.843 82.761 5.48 124.038a8.706 8.706 0 0 1-8.684 9.469z" style="fill:#fff"/>
</svg>