<svg xmlns="http://www.w3.org/2000/svg" xml:space="preserve" width="800" height="800" viewBox="0 0 512 512"><path fill-rule="evenodd" d="M256 0C114.609 0 0 114.609 0 256s114.609 256 256 256 256-114.609 256-256S397.391 0 256 0zm0 472c-119.297 0-216-96.703-216-216S136.703 40 256 40s216 96.703 216 216-96.703 216-216 216z" clip-rule="evenodd"/><path fill-rule="evenodd" d="m128 128 73.141 256 73.141-51.203L329.141 384v-85.328L384 247.469 128 128zm164.578 170.672-97.375-93.875 97.375 76.797v17.078z" clip-rule="evenodd"/></svg>